<svg id="Capa_1" enable-background="new 0 0 512 512" height="512" viewBox="0 0 512 512" width="512" xmlns="http://www.w3.org/2000/svg"><g><g><path d="m342.5 504.5h-220c-16.569 0-30-13.431-30-30v-437c0-16.569 13.431-30 30-30h267c16.569 0 30 13.431 30 30v390z" fill="#f7f6f7"/><path d="m389.5 7.5h-30c16.569 0 30 13.432 30 30v338.362c0 11.95-9.688 21.638-21.638 21.638h-45.362c-5.523 0-10 4.477-10 10v97h30l77-77v-390c0-16.569-13.431-30-30-30z" fill="#edebed"/><path d="m349.5 90.5h-187c-5.523 0-10-4.477-10-10v-18c0-5.523 4.477-10 10-10h187c5.523 0 10 4.477 10 10v18c0 5.523-4.477 10-10 10z" fill="#c7c2c9"/><g><g><g><circle cx="193.645" cy="298.355" fill="#dd636e" r="26.145"/></g></g><g><g><circle cx="193.645" cy="388.355" fill="#dd636e" r="26.145"/></g></g></g><path d="m342.5 504.5v-67c0-5.523 4.477-10 10-10h67z" fill="#c7c2c9"/></g><path d="m349.5 83h-112.371c-4.142 0-7.5 3.357-7.5 7.5s3.358 7.5 7.5 7.5h112.371c9.649 0 17.5-7.851 17.5-17.5v-18c0-9.649-7.851-17.5-17.5-17.5h-187c-9.649 0-17.5 7.851-17.5 17.5v18c0 9.649 7.851 17.5 17.5 17.5h39.629c4.142 0 7.5-3.357 7.5-7.5s-3.358-7.5-7.5-7.5h-39.629c-1.378 0-2.5-1.121-2.5-2.5v-18c0-1.379 1.122-2.5 2.5-2.5h187c1.378 0 2.5 1.121 2.5 2.5v18c0 1.379-1.122 2.5-2.5 2.5zm70 248c4.142 0 7.5-3.357 7.5-7.5v-286c0-20.678-16.822-37.5-37.5-37.5h-267c-20.678 0-37.5 16.822-37.5 37.5v437c0 20.678 16.822 37.5 37.5 37.5h220c1.518-.03 3.716-.529 5.303-2.196l77-77c1.121-1.247 2.197-2.825 2.197-5.304v-69c0-4.143-3.358-7.5-7.5-7.5s-7.5 3.357-7.5 7.5v61.5h-59.5c-9.649 0-17.5 7.851-17.5 17.5v59.5h-212.5c-12.407 0-22.5-10.094-22.5-22.5v-437c0-12.406 10.093-22.5 22.5-22.5h267c12.407 0 22.5 10.094 22.5 22.5v286c0 4.143 3.358 7.5 7.5 7.5zm-69.5 106.5c0-1.379 1.122-2.5 2.5-2.5h48.894l-51.394 51.394zm-109.391-209.911c2.755 3.11 7.498 3.378 10.587.64l14.606-12.94 17.296 13.276c3.26 2.506 7.978 1.922 10.516-1.383 2.522-3.285 1.903-7.993-1.382-10.516l-14.994-11.51 12.298-10.896c3.1-2.746 3.387-7.486.64-10.587-2.747-3.1-7.487-3.387-10.587-.64l-14.47 12.819-18.772-14.41c14.542-.885 26.104-12.99 26.104-27.751 0-15.333-12.475-27.808-27.809-27.808h-20.308c-4.142 0-7.5 3.357-7.5 7.5v76.455c0 4.143 3.358 7.5 7.5 7.5s7.5-3.357 7.5-7.5v-20.627l21.85 16.772-12.435 11.017c-3.1 2.748-3.386 7.488-.64 10.589zm-8.775-61.088v-25.616h12.808c7.062 0 12.809 5.745 12.809 12.808s-5.746 12.809-12.809 12.809h-12.808zm24.166 218.208c-4.142 0-7.5 3.357-7.5 7.5s3.358 7.5 7.5 7.5h88.5c4.142 0 7.5-3.357 7.5-7.5s-3.358-7.5-7.5-7.5zm0-75h88.5c4.142 0 7.5-3.357 7.5-7.5s-3.358-7.5-7.5-7.5h-88.5c-4.142 0-7.5 3.357-7.5 7.5s3.358 7.5 7.5 7.5zm-38.564-35.146c-13.118-13.117-34.463-13.116-47.582 0-6.354 6.355-9.854 14.804-9.854 23.791 0 8.979 3.493 17.42 9.837 23.772.006.006.011.013.017.019s.013.012.02.018c6.352 6.343 14.793 9.836 23.771 9.836 8.987 0 17.436-3.5 23.791-9.854s9.854-14.804 9.854-23.791-3.499-17.436-9.854-23.791zm-42.436 23.791c0-4.98 1.939-9.662 5.461-13.184 5.337-5.337 13.148-6.812 19.942-4.181l-24.127 24.127c-.829-2.128-1.276-4.408-1.276-6.762zm31.83 13.184c-3.522 3.522-8.204 5.462-13.184 5.462-2.353 0-4.634-.447-6.763-1.275l24.133-24.133c.828 2.129 1.275 4.41 1.275 6.763 0 4.98-1.94 9.662-5.461 13.183zm167.67-46.829h-118.5c-4.142 0-7.5 3.357-7.5 7.5s3.358 7.5 7.5 7.5h118.5c4.142 0 7.5-3.357 7.5-7.5s-3.358-7.5-7.5-7.5zm7.5 97.5c0-4.143-3.358-7.5-7.5-7.5h-118.5c-4.142 0-7.5 3.357-7.5 7.5s3.358 7.5 7.5 7.5h118.5c4.142 0 7.5-3.357 7.5-7.5zm-212.146 2.354c-6.354 6.355-9.854 14.804-9.854 23.791 0 8.979 3.493 17.42 9.837 23.772.006.006.011.013.017.019s.013.012.02.018c6.352 6.343 14.793 9.836 23.771 9.836 8.987 0 17.436-3.5 23.791-9.854s9.854-14.804 9.854-23.791-3.5-17.437-9.854-23.791c-13.118-13.117-34.463-13.116-47.582 0zm5.146 23.791c0-4.98 1.939-9.662 5.461-13.184 5.337-5.337 13.148-6.812 19.942-4.181l-24.127 24.127c-.829-2.128-1.276-4.408-1.276-6.762zm31.83 13.184c-3.522 3.522-8.204 5.462-13.184 5.462-2.353 0-4.634-.447-6.763-1.275l24.133-24.133c.828 2.129 1.275 4.41 1.275 6.763 0 4.98-1.94 9.662-5.461 13.183z"/></g></svg>